<svg width="1024" height="1024" viewBox="0 0 1024 1024" fill="none" xmlns="http://www.w3.org/2000/svg">
<rect width="1024" height="1024" fill="url(#paint0_linear_4515_91243)"/>
<path d="M670.322 475.703C667.806 464.481 664.067 453.735 659.307 443.533C654.004 432.107 647.408 421.361 639.657 411.499C631.634 401.298 622.455 392.116 612.256 384.09C602.397 376.337 591.654 369.74 580.231 364.435C570.032 359.674 559.289 356.001 548.07 353.417C536.443 350.697 524.273 349.336 511.83 349.336C499.387 349.336 487.216 350.697 475.589 353.417C473.89 361.783 472.258 370.556 470.83 379.738C468.178 396.061 466.002 413.676 464.303 432.651C463.487 442.173 462.807 452.103 462.263 462.372C461.447 478.083 460.971 494.61 460.971 512.021C460.971 529.432 461.447 545.891 462.263 561.67C477.969 562.486 494.492 562.962 511.898 562.962C529.304 562.962 545.758 562.486 561.533 561.67C571.732 561.126 581.659 560.446 591.178 559.63C610.216 557.929 627.826 555.753 644.145 553.1C653.324 551.604 662.095 550.04 670.458 548.34C673.11 536.71 674.538 524.535 674.538 512.089C674.538 499.643 673.178 487.469 670.458 475.839L670.322 475.703ZM623.203 463.393C619.055 464.005 615.044 465.025 611.1 466.385C604.029 468.833 597.501 472.438 591.586 476.995C576.831 488.217 566.224 505.084 563.165 523.243C563.165 523.583 562.825 523.719 562.621 523.651C562.417 523.651 562.213 523.447 562.213 523.243C557.385 492.298 532.364 468.153 502.175 463.324C501.631 463.256 501.631 462.44 502.175 462.372C504.283 462.032 506.322 461.624 508.362 461.08C525.361 456.795 540.115 446.253 549.974 432.243C553.17 427.754 555.821 422.925 557.929 417.756C559.969 412.792 561.465 407.555 562.281 402.182C562.349 401.638 563.165 401.638 563.233 402.182C565.069 413.88 569.828 424.558 576.559 433.671C580.435 438.908 584.923 443.533 590.022 447.546C599.541 455.095 610.896 460.332 623.203 462.44C623.747 462.508 623.747 463.325 623.203 463.393Z" fill="#F1F2F2"/>
<path d="M852 500.419L851.728 523.611C851.728 558.297 814.4 589.855 746.679 612.435C722.813 620.392 695.956 626.989 667.058 632.158C664.951 632.566 662.843 632.906 660.735 633.314C652.848 634.606 644.893 635.831 636.666 636.919C628.642 638.007 620.483 638.959 612.256 639.843C602.601 640.864 592.878 641.748 582.951 642.496C573.024 643.176 563.029 643.788 552.83 644.196C539.299 644.74 525.633 645.012 511.83 645.012C498.027 645.012 484.293 644.74 470.83 644.196C460.631 643.72 450.636 643.176 440.709 642.496C430.782 641.748 421.059 640.932 411.472 639.843C403.177 638.959 395.086 638.007 387.062 636.919C378.903 635.831 370.88 634.606 363.061 633.314C360.885 632.974 358.777 632.566 356.67 632.158C327.772 627.057 300.915 620.46 277.049 612.435C209.328 589.855 172 558.297 172 523.611V500.283C172 465.596 209.328 434.039 277.049 411.459C300.915 403.501 327.772 396.904 356.67 391.735C356.33 394.592 355.99 397.38 355.65 400.305C353.882 415.2 352.522 430.366 351.57 445.873C344.091 447.369 336.883 448.866 329.88 450.566C263.927 466.073 220.343 489.061 209.056 511.981C220.343 534.901 263.927 557.889 329.88 573.328C336.883 574.96 344.091 576.524 351.57 578.02C355.786 578.837 360.069 579.653 364.489 580.401C370.064 581.353 375.708 582.305 381.487 583.121C398.281 585.638 416.028 587.746 434.658 589.242C444.381 590.059 454.308 590.739 464.439 591.215C479.805 591.963 495.716 592.371 512.034 592.371C528.352 592.371 544.195 591.963 559.629 591.215C569.76 590.739 579.687 590.059 589.342 589.242C607.972 587.678 625.719 585.638 642.513 583.121C648.292 582.237 654.004 581.353 659.511 580.401C663.863 579.653 668.146 578.837 672.43 578.02C679.909 576.592 687.116 575.028 694.12 573.396C760.073 557.889 803.657 534.901 814.944 511.981C803.657 489.061 760.073 466.073 694.12 450.634C688 432.475 679.297 415.608 668.35 400.373C665.971 397.04 663.523 393.844 660.939 390.715C663.047 391.055 665.223 391.463 667.33 391.871C696.228 396.972 723.085 403.569 746.95 411.595C814.672 434.175 852 465.733 852 500.419Z" fill="#F1F2F2"/>
<path d="M632.994 362.978C629.867 360.393 626.671 357.945 623.339 355.565C608.109 344.615 591.178 335.909 573.092 329.788C557.658 263.816 534.676 220.221 511.762 208.931C488.849 220.221 465.867 263.816 450.433 329.788C448.733 336.793 447.237 344.003 445.741 351.484C444.925 355.701 444.109 360.053 443.361 364.406C442.409 369.983 441.457 375.628 440.642 381.409C438.126 398.208 436.018 415.959 434.522 434.595C433.706 444.252 433.026 454.182 432.55 464.316C431.802 479.687 431.394 495.601 431.394 511.924C431.394 528.247 431.802 544.094 432.55 559.533C413.512 557.832 395.902 555.656 379.652 553.004C379.108 539.469 378.836 525.799 378.836 511.992C378.836 498.186 379.108 484.447 379.652 470.981C380.128 460.779 380.672 450.781 381.419 440.852C382.099 430.922 382.983 421.128 384.003 411.607C384.887 403.309 385.839 395.148 386.927 387.122C388.015 378.961 389.239 370.935 390.531 363.114C390.87 361.006 391.278 358.829 391.686 356.721C396.786 327.816 403.381 300.951 411.404 277.079C433.978 209.339 465.527 172 500.204 172H523.525C558.202 172 589.751 209.339 612.324 277.079C620.28 300.951 626.875 327.816 632.042 356.721C632.45 358.829 632.79 361.006 633.198 363.114L632.994 362.978Z" fill="#F1F2F2"/>
<path d="M631.906 667.28C626.807 696.185 620.212 723.049 612.188 746.922C589.615 814.662 558.066 852 523.389 852H500.068C465.391 852 433.842 814.662 411.269 746.922C403.313 723.049 396.718 696.185 391.551 667.28C394.406 667.62 397.194 667.96 400.118 668.3C415.008 670.068 430.171 671.428 445.673 672.38C447.169 679.862 448.665 687.071 450.365 694.076C465.799 760.048 488.781 803.644 511.695 814.934C534.608 803.644 557.59 760.048 573.092 694.076C574.724 687.071 576.288 679.862 577.716 672.38C593.218 671.36 608.449 670 623.271 668.3C626.127 668.028 628.983 667.62 631.839 667.28H631.906Z" fill="#F1F2F2"/>
<path d="M769.746 0.590088H252.122C113.279 0.590088 0.724609 113.145 0.724609 251.988V769.611C0.724609 908.454 113.279 1021.01 252.122 1021.01H769.746C908.589 1021.01 1021.14 908.454 1021.14 769.611V251.988C1021.14 113.145 908.589 0.590088 769.746 0.590088Z" fill="url(#paint1_linear_4515_91243)"/>
<g opacity="0.3" filter="url(#filter0_dddddd_4515_91243)">
<path d="M678.536 474.338C675.899 462.578 671.98 451.316 666.992 440.624C661.433 428.649 654.521 417.387 646.398 407.052C637.989 396.36 628.37 386.738 617.681 378.327C607.348 370.201 596.089 363.287 584.118 357.727C573.429 352.738 562.17 348.889 550.413 346.18C538.228 343.329 525.472 341.904 512.432 341.904C499.392 341.904 486.636 343.329 474.451 346.18C472.67 354.947 470.96 364.142 469.463 373.765C466.684 390.872 464.404 409.333 462.622 429.219C461.767 439.198 461.055 449.605 460.485 460.368C459.63 476.833 459.131 494.154 459.131 512.401C459.131 530.648 459.63 547.898 460.485 564.434C476.945 565.29 494.261 565.788 512.503 565.788C530.745 565.788 547.99 565.29 564.522 564.434C575.211 563.864 585.614 563.151 595.591 562.296C615.543 560.514 633.999 558.233 651.101 555.453C660.721 553.885 669.913 552.246 678.678 550.464C681.457 538.275 682.954 525.516 682.954 512.472C682.954 499.428 681.528 486.67 678.678 474.481L678.536 474.338ZM629.153 461.437C624.807 462.079 620.602 463.148 616.469 464.573C609.059 467.139 602.218 470.917 596.018 475.693C580.555 487.454 569.439 505.131 566.232 524.162C566.232 524.518 565.876 524.661 565.662 524.59C565.448 524.59 565.235 524.376 565.235 524.162C560.175 491.73 533.952 466.427 502.313 461.366C501.743 461.295 501.743 460.439 502.313 460.368C504.522 460.012 506.66 459.584 508.798 459.014C526.612 454.523 542.076 443.475 552.408 428.792C555.757 424.087 558.536 419.027 560.745 413.609C562.883 408.406 564.451 402.918 565.306 397.287C565.377 396.716 566.232 396.716 566.303 397.287C568.227 409.547 573.216 420.737 580.27 430.289C584.332 435.777 589.035 440.624 594.379 444.829C604.355 452.741 616.256 458.23 629.153 460.439C629.723 460.511 629.723 461.366 629.153 461.437Z" fill="url(#paint2_radial_4515_91243)"/>
<path d="M868.939 500.241L868.654 524.547C868.654 560.899 829.533 593.972 758.56 617.636C733.548 625.976 705.401 632.89 675.116 638.307C672.907 638.735 670.698 639.091 668.489 639.519C660.223 640.873 651.886 642.156 643.264 643.296C634.855 644.437 626.304 645.435 617.682 646.361C607.563 647.431 597.373 648.357 586.969 649.141C576.566 649.854 566.091 650.495 555.402 650.923C541.221 651.493 526.898 651.779 512.433 651.779C497.968 651.779 483.573 651.493 469.464 650.923C458.775 650.424 448.3 649.854 437.897 649.141C427.493 648.357 417.303 647.502 407.256 646.361C398.562 645.435 390.082 644.437 381.674 643.296C373.123 642.156 364.714 640.873 356.519 639.519C354.239 639.162 352.03 638.735 349.821 638.307C319.536 632.961 291.389 626.047 266.378 617.636C195.404 593.972 156.283 560.899 156.283 524.547V500.098C156.283 463.747 195.404 430.673 266.378 407.009C291.389 398.67 319.536 391.756 349.821 386.338C349.465 389.332 349.109 392.254 348.752 395.319C346.9 410.929 345.474 426.824 344.477 443.076C336.638 444.644 329.085 446.212 321.745 447.994C252.625 464.245 206.948 488.338 195.119 512.358C206.948 536.379 252.625 560.471 321.745 576.651C329.085 578.362 336.638 580.001 344.477 581.569C348.895 582.425 353.384 583.28 358.016 584.064C363.859 585.062 369.774 586.06 375.831 586.915C393.431 589.553 412.03 591.762 431.555 593.33C441.745 594.186 452.148 594.899 462.766 595.397C478.87 596.182 495.545 596.609 512.647 596.609C529.749 596.609 546.352 596.182 562.528 595.397C573.145 594.899 583.549 594.186 593.668 593.33C613.193 591.691 631.791 589.553 649.392 586.915C655.449 585.989 661.435 585.062 667.206 584.064C671.767 583.28 676.256 582.425 680.746 581.569C688.584 580.073 696.137 578.433 703.477 576.723C772.598 560.471 818.274 536.379 830.103 512.358C818.274 488.338 772.598 464.245 703.477 448.065C697.064 429.034 687.943 411.357 676.47 395.391C673.976 391.898 671.411 388.548 668.703 385.269C670.912 385.626 673.192 386.053 675.401 386.481C705.686 391.827 733.833 398.741 758.845 407.152C829.818 430.816 868.939 463.889 868.939 500.241Z" fill="url(#paint3_radial_4515_91243)"/>
<path d="M639.416 356.2C636.138 353.491 632.789 350.925 629.297 348.43C613.335 336.955 595.592 327.831 576.637 321.416C560.461 252.276 536.376 206.587 512.362 194.755C488.348 206.587 464.262 252.276 448.087 321.416C446.305 328.758 444.738 336.313 443.17 344.154C442.315 348.573 441.46 353.135 440.676 357.697C439.678 363.541 438.681 369.458 437.826 375.516C435.189 393.122 432.98 411.726 431.412 431.256C430.557 441.377 429.845 451.784 429.346 462.404C428.562 478.513 428.134 495.192 428.134 512.299C428.134 529.406 428.562 546.014 429.346 562.194C409.393 560.412 390.938 558.131 373.907 555.351C373.337 541.167 373.052 526.84 373.052 512.37C373.052 497.901 373.337 483.503 373.907 469.39C374.406 458.698 374.976 448.22 375.759 437.813C376.472 427.407 377.398 417.143 378.467 407.164C379.394 398.468 380.391 389.914 381.531 381.504C382.672 372.95 383.954 364.539 385.308 356.342C385.664 354.133 386.092 351.852 386.52 349.642C391.864 319.349 398.776 291.194 407.184 266.175C430.842 195.182 463.906 156.051 500.248 156.051H524.69C561.031 156.051 594.095 195.182 617.753 266.175C626.09 291.194 633.003 319.349 638.418 349.642C638.846 351.852 639.202 354.133 639.63 356.342L639.416 356.2Z" fill="url(#paint4_radial_4515_91243)"/>
<path d="M638.276 675.115C632.932 705.408 626.02 733.563 617.611 758.582C593.953 829.575 560.889 868.707 524.548 868.707H500.106C463.764 868.707 430.7 829.575 407.042 758.582C398.705 733.563 391.793 705.408 386.377 675.115C389.37 675.471 392.292 675.828 395.356 676.184C410.962 678.037 426.852 679.463 443.099 680.461C444.667 688.301 446.235 695.857 448.016 703.199C464.192 772.339 488.277 818.028 512.291 829.86C536.305 818.028 560.391 772.339 576.638 703.199C578.348 695.857 579.987 688.301 581.483 680.461C597.73 679.392 613.692 677.966 629.226 676.184C632.219 675.899 635.212 675.471 638.205 675.115H638.276Z" fill="url(#paint5_radial_4515_91243)"/>
</g>
<path d="M678.252 474.288C675.616 462.527 671.697 451.265 666.708 440.573C661.15 428.599 654.238 417.337 646.115 407.001C637.706 396.31 628.086 386.687 617.398 378.276C607.065 370.15 595.806 363.236 583.835 357.677C573.146 352.687 561.887 348.838 550.13 346.13C537.944 343.279 525.189 341.853 512.149 341.853C499.109 341.853 486.353 343.279 474.168 346.13C472.387 354.897 470.676 364.092 469.18 373.714C466.401 390.821 464.121 409.282 462.339 429.169C461.484 439.148 460.771 449.554 460.201 460.317C459.346 476.783 458.848 494.103 458.848 512.351C458.848 530.598 459.346 547.847 460.201 564.384C476.662 565.239 493.978 565.738 512.22 565.738C530.462 565.738 547.707 565.239 564.239 564.384C574.928 563.813 585.331 563.101 595.307 562.245C615.26 560.463 633.716 558.182 650.818 555.403C660.438 553.834 669.63 552.195 678.395 550.413C681.174 538.225 682.67 525.466 682.67 512.422C682.67 499.378 681.245 486.619 678.395 474.43L678.252 474.288ZM628.87 461.387C624.523 462.028 620.319 463.097 616.186 464.523C608.775 467.089 601.935 470.867 595.735 475.642C580.272 487.403 569.156 505.08 565.949 524.111C565.949 524.468 565.593 524.61 565.379 524.539C565.165 524.539 564.951 524.325 564.951 524.111C559.892 491.68 533.669 466.376 502.03 461.315C501.46 461.244 501.46 460.389 502.03 460.317C504.239 459.961 506.377 459.533 508.515 458.963C526.329 454.473 541.792 443.424 552.125 428.741C555.474 424.037 558.253 418.976 560.462 413.559C562.6 408.356 564.168 402.867 565.023 397.236C565.094 396.666 565.949 396.666 566.02 397.236C567.944 409.496 572.932 420.687 579.987 430.238C584.049 435.726 588.752 440.573 594.096 444.779C604.072 452.691 615.972 458.179 628.87 460.389C629.44 460.46 629.44 461.315 628.87 461.387Z" fill="url(#paint6_radial_4515_91243)"/>
<path d="M868.656 500.19L868.371 524.496C868.371 560.848 829.25 593.921 758.277 617.586C733.265 625.925 705.118 632.839 674.833 638.256C672.624 638.684 670.415 639.04 668.206 639.468C659.94 640.822 651.603 642.105 642.98 643.246C634.572 644.386 626.021 645.384 617.399 646.311C607.28 647.38 597.09 648.307 586.686 649.091C576.282 649.803 565.807 650.445 555.119 650.873C540.938 651.443 526.615 651.728 512.15 651.728C497.684 651.728 483.29 651.443 469.181 650.873C458.492 650.374 448.017 649.803 437.613 649.091C427.21 648.307 417.02 647.451 406.972 646.311C398.279 645.384 389.799 644.386 381.391 643.246C372.84 642.105 364.431 640.822 356.236 639.468C353.956 639.112 351.747 638.684 349.538 638.256C319.253 632.911 291.106 625.997 266.094 617.586C195.121 593.921 156 560.848 156 524.496V500.048C156 463.696 195.121 430.623 266.094 406.959C291.106 398.619 319.253 391.705 349.538 386.288C349.182 389.282 348.825 392.204 348.469 395.269C346.616 410.879 345.191 426.774 344.194 443.025C336.355 444.593 328.802 446.162 321.462 447.944C252.341 464.195 206.665 488.287 194.836 512.308C206.665 536.329 252.341 560.421 321.462 576.601C328.802 578.311 336.355 579.951 344.194 581.519C348.612 582.374 353.101 583.23 357.733 584.014C363.576 585.012 369.49 586.009 375.547 586.865C393.148 589.502 411.747 591.712 431.271 593.28C441.461 594.135 451.865 594.848 462.483 595.347C478.587 596.131 495.262 596.559 512.364 596.559C529.466 596.559 546.069 596.131 562.245 595.347C572.862 594.848 583.266 594.135 593.384 593.28C612.909 591.64 631.508 589.502 649.109 586.865C655.166 585.938 661.151 585.012 666.923 584.014C671.484 583.23 675.973 582.374 680.462 581.519C688.301 580.022 695.854 578.383 703.194 576.672C772.314 560.421 817.991 536.329 829.82 512.308C817.991 488.287 772.314 464.195 703.194 448.015C696.781 428.984 687.659 411.307 676.187 395.34C673.693 391.848 671.127 388.497 668.42 385.219C670.629 385.575 672.909 386.003 675.118 386.43C705.403 391.776 733.55 398.69 758.562 407.101C829.535 430.765 868.656 463.839 868.656 500.19Z" fill="url(#paint7_radial_4515_91243)"/>
<path d="M639.133 356.149C635.855 353.441 632.506 350.875 629.014 348.38C613.052 336.904 595.309 327.781 576.354 321.365C560.178 252.226 536.093 206.536 512.079 194.704C488.065 206.536 463.979 252.226 447.804 321.365C446.022 328.707 444.454 336.263 442.887 344.103C442.032 348.523 441.177 353.084 440.393 357.646C439.395 363.491 438.398 369.407 437.542 375.466C434.906 393.071 432.697 411.675 431.129 431.205C430.274 441.327 429.561 451.733 429.063 462.354C428.279 478.463 427.851 495.142 427.851 512.249C427.851 529.355 428.279 545.963 429.063 562.143C409.11 560.361 390.654 558.081 373.624 555.301C373.053 541.116 372.768 526.789 372.768 512.32C372.768 497.85 373.053 483.452 373.624 469.339C374.122 458.647 374.692 448.169 375.476 437.763C376.189 427.356 377.115 417.092 378.184 407.113C379.11 398.417 380.108 389.864 381.248 381.453C382.388 372.9 383.671 364.489 385.025 356.292C385.381 354.082 385.809 351.801 386.236 349.592C391.581 319.298 398.493 291.144 406.901 266.125C430.559 195.132 463.623 156 499.965 156H524.406C560.748 156 593.812 195.132 617.47 266.125C625.807 291.144 632.719 319.298 638.135 349.592C638.563 351.801 638.919 354.082 639.346 356.292L639.133 356.149Z" fill="url(#paint8_radial_4515_91243)"/>
<path d="M637.993 675.064C632.649 705.358 625.736 733.513 617.328 758.531C593.67 829.524 560.606 868.656 524.264 868.656H499.823C463.481 868.656 430.417 829.524 406.759 758.531C398.422 733.513 391.51 705.358 386.094 675.064C389.087 675.421 392.009 675.777 395.073 676.134C410.678 677.987 426.569 679.412 442.816 680.41C444.384 688.251 445.951 695.806 447.733 703.148C463.908 772.288 487.994 817.977 512.008 829.81C536.022 817.977 560.107 772.288 576.354 703.148C578.065 695.806 579.703 688.251 581.2 680.41C597.447 679.341 613.409 677.916 628.943 676.134C631.936 675.848 634.929 675.421 637.922 675.064H637.993Z" fill="url(#paint9_radial_4515_91243)"/>
<defs>
<filter id="filter0_dddddd_4515_91243" x="117.348" y="117.116" width="790.526" height="790.526" filterUnits="userSpaceOnUse" color-interpolation-filters="sRGB">
<feFlood flood-opacity="0" result="BackgroundImageFix"/>
<feColorMatrix in="SourceAlpha" type="matrix" values="0 0 0 0 0 0 0 0 0 0 0 0 0 0 0 0 0 0 127 0" result="hardAlpha"/>
<feOffset/>
<feGaussianBlur stdDeviation="0.463511"/>
<feColorMatrix type="matrix" values="0 0 0 0 1 0 0 0 0 1 0 0 0 0 1 0 0 0 1 0"/>
<feBlend mode="normal" in2="BackgroundImageFix" result="effect1_dropShadow_4515_91243"/>
<feColorMatrix in="SourceAlpha" type="matrix" values="0 0 0 0 0 0 0 0 0 0 0 0 0 0 0 0 0 0 127 0" result="hardAlpha"/>
<feOffset/>
<feGaussianBlur stdDeviation="0.927023"/>
<feColorMatrix type="matrix" values="0 0 0 0 1 0 0 0 0 1 0 0 0 0 1 0 0 0 1 0"/>
<feBlend mode="normal" in2="effect1_dropShadow_4515_91243" result="effect2_dropShadow_4515_91243"/>
<feColorMatrix in="SourceAlpha" type="matrix" values="0 0 0 0 0 0 0 0 0 0 0 0 0 0 0 0 0 0 127 0" result="hardAlpha"/>
<feOffset/>
<feGaussianBlur stdDeviation="3.24458"/>
<feColorMatrix type="matrix" values="0 0 0 0 1 0 0 0 0 1 0 0 0 0 1 0 0 0 1 0"/>
<feBlend mode="normal" in2="effect2_dropShadow_4515_91243" result="effect3_dropShadow_4515_91243"/>
<feColorMatrix in="SourceAlpha" type="matrix" values="0 0 0 0 0 0 0 0 0 0 0 0 0 0 0 0 0 0 127 0" result="hardAlpha"/>
<feOffset/>
<feGaussianBlur stdDeviation="6.48916"/>
<feColorMatrix type="matrix" values="0 0 0 0 0.890196 0 0 0 0 0.890196 0 0 0 0 0.890196 0 0 0 1 0"/>
<feBlend mode="normal" in2="effect3_dropShadow_4515_91243" result="effect4_dropShadow_4515_91243"/>
<feColorMatrix in="SourceAlpha" type="matrix" values="0 0 0 0 0 0 0 0 0 0 0 0 0 0 0 0 0 0 127 0" result="hardAlpha"/>
<feOffset/>
<feGaussianBlur stdDeviation="11.1243"/>
<feColorMatrix type="matrix" values="0 0 0 0 0.890196 0 0 0 0 0.890196 0 0 0 0 0.890196 0 0 0 1 0"/>
<feBlend mode="normal" in2="effect4_dropShadow_4515_91243" result="effect5_dropShadow_4515_91243"/>
<feColorMatrix in="SourceAlpha" type="matrix" values="0 0 0 0 0 0 0 0 0 0 0 0 0 0 0 0 0 0 127 0" result="hardAlpha"/>
<feOffset/>
<feGaussianBlur stdDeviation="19.4675"/>
<feColorMatrix type="matrix" values="0 0 0 0 0.890196 0 0 0 0 0.890196 0 0 0 0 0.890196 0 0 0 1 0"/>
<feBlend mode="normal" in2="effect5_dropShadow_4515_91243" result="effect6_dropShadow_4515_91243"/>
<feBlend mode="normal" in="SourceGraphic" in2="effect6_dropShadow_4515_91243" result="shape"/>
</filter>
<linearGradient id="paint0_linear_4515_91243" x1="815.437" y1="1037.56" x2="208.567" y2="-13.5651" gradientUnits="userSpaceOnUse">
<stop stop-color="#2F2F2F"/>
<stop offset="0.34" stop-color="#292929"/>
<stop offset="0.72" stop-color="#232121"/>
<stop offset="1" stop-color="#191919"/>
</linearGradient>
<linearGradient id="paint1_linear_4515_91243" x1="813.309" y1="1034.53" x2="208.562" y2="-12.9275" gradientUnits="userSpaceOnUse">
<stop stop-color="#2F2F2F"/>
<stop offset="0.34" stop-color="#292929"/>
<stop offset="0.72" stop-color="#232121"/>
<stop offset="1" stop-color="#191919"/>
</linearGradient>
<radialGradient id="paint2_radial_4515_91243" cx="0" cy="0" r="1" gradientUnits="userSpaceOnUse" gradientTransform="translate(566 458.5) rotate(173.307) scale(386.131 464.538)">
<stop offset="0.0259528" stop-color="white"/>
<stop offset="1" stop-color="#E0E0E0"/>
</radialGradient>
<radialGradient id="paint3_radial_4515_91243" cx="0" cy="0" r="1" gradientUnits="userSpaceOnUse" gradientTransform="translate(566 458.5) rotate(173.307) scale(386.131 464.538)">
<stop offset="0.0259528" stop-color="white"/>
<stop offset="1" stop-color="#E0E0E0"/>
</radialGradient>
<radialGradient id="paint4_radial_4515_91243" cx="0" cy="0" r="1" gradientUnits="userSpaceOnUse" gradientTransform="translate(566 458.5) rotate(173.307) scale(386.131 464.538)">
<stop offset="0.0259528" stop-color="white"/>
<stop offset="1" stop-color="#E0E0E0"/>
</radialGradient>
<radialGradient id="paint5_radial_4515_91243" cx="0" cy="0" r="1" gradientUnits="userSpaceOnUse" gradientTransform="translate(566 458.5) rotate(173.307) scale(386.131 464.538)">
<stop offset="0.0259528" stop-color="white"/>
<stop offset="1" stop-color="#E0E0E0"/>
</radialGradient>
<radialGradient id="paint6_radial_4515_91243" cx="0" cy="0" r="1" gradientUnits="userSpaceOnUse" gradientTransform="translate(565.717 458.45) rotate(173.307) scale(386.131 464.538)">
<stop offset="0.0259528" stop-color="white"/>
<stop offset="1" stop-color="#E0E0E0"/>
</radialGradient>
<radialGradient id="paint7_radial_4515_91243" cx="0" cy="0" r="1" gradientUnits="userSpaceOnUse" gradientTransform="translate(565.717 458.45) rotate(173.307) scale(386.131 464.538)">
<stop offset="0.0259528" stop-color="white"/>
<stop offset="1" stop-color="#E0E0E0"/>
</radialGradient>
<radialGradient id="paint8_radial_4515_91243" cx="0" cy="0" r="1" gradientUnits="userSpaceOnUse" gradientTransform="translate(565.717 458.45) rotate(173.307) scale(386.131 464.538)">
<stop offset="0.0259528" stop-color="white"/>
<stop offset="1" stop-color="#E0E0E0"/>
</radialGradient>
<radialGradient id="paint9_radial_4515_91243" cx="0" cy="0" r="1" gradientUnits="userSpaceOnUse" gradientTransform="translate(565.717 458.45) rotate(173.307) scale(386.131 464.538)">
<stop offset="0.0259528" stop-color="white"/>
<stop offset="1" stop-color="#E0E0E0"/>
</radialGradient>
</defs>
</svg>
